# Blender v2.79 (sub 7) OBJ File: ''
# www.blender.org
o ammo_W_SMG_MP7_T1_Ammo_LOD_HIGH
v 0.541925 -1.314935 6.627591
v 0.274683 -1.261486 8.070695
v 0.007442 -1.368383 6.627591
v 1.076408 -0.727004 8.070695
v 0.969511 -0.994245 6.627591
v 1.236753 -0.566658 6.627591
v 1.236753 0.181618 8.070695
v 1.343649 -0.032175 6.627591
v 1.236753 0.448859 6.627591
v 0.862615 -0.620107 9.406902
v 1.022960 0.181617 9.406902
v 0.595373 0.822997 9.406902
v 0.702270 0.983342 8.070695
v 0.969511 0.929894 6.627591
v 0.541925 1.197136 6.627591
v 0.221235 -1.047693 9.406902
v 0.595373 -0.459762 10.636213
v 0.702270 0.074721 10.636213
v 0.435028 0.555756 10.636213
v -0.152903 0.662652 10.636213
v -0.206351 0.983341 9.406902
v -0.259800 1.197136 8.070695
v 0.007442 1.304032 6.627591
v 0.167787 -0.780453 10.636213
v 0.381580 -0.299418 11.170696
v 0.435028 0.021272 11.170696
v 0.274683 0.341962 11.170696
v -0.046006 0.395410 11.170696
v -0.366696 0.181617 11.170696
v -0.580489 0.341962 10.636213
v 0.114338 -0.459762 11.170696
v 0.060890 -0.245970 11.277593
v 0.221235 -0.192521 11.277593
v 0.221235 -0.032176 11.277593
v 0.167787 0.128169 11.277593
v -0.046006 0.181617 11.277593
v -0.206351 0.074721 11.277593
v -0.420144 -0.139073 11.170696
v 0.007442 -0.032176 11.277593
v -0.527041 1.197136 6.627591
v -1.008075 0.662652 8.070695
v -0.954627 0.929894 6.627591
v -1.221869 0.448859 6.627591
v -1.221869 -0.299417 8.070695
v -1.328765 -0.032175 6.627591
v -1.221869 -0.566658 6.627591
v -0.847731 0.555756 9.406902
v -1.008075 -0.245969 9.406902
v -0.580489 -0.887349 9.406902
v -0.687386 -1.101141 8.070695
v -0.954627 -0.994245 6.627591
v -0.527041 -1.314935 6.627591
v -0.687386 -0.192521 10.636213
v -0.420144 -0.620107 10.636213
v -0.259800 -0.406314 11.170696
v -0.206351 -0.085624 11.277593
v -0.099455 -0.245970 11.277593
v 0.007442 -1.582176 6.627590
v 0.595373 -1.475280 6.627590
v 1.129856 -1.154589 6.627591
v 1.450546 -0.620106 6.627591
v 1.557443 -0.032175 6.627591
v 1.450546 0.555756 6.627591
v 1.129856 1.036790 6.627591
v 0.595373 1.410929 6.627591
v 0.007442 1.517825 6.627591
v -0.580489 1.410929 6.627591
v -1.061524 1.036790 6.627591
v -1.435662 0.555756 6.627591
v -1.542558 -0.032175 6.627591
v -1.435662 -0.620106 6.627591
v -1.061524 -1.154589 6.627591
v -0.580489 -1.475280 6.627590
v 0.007442 -1.582176 4.329313
v 0.595373 -1.475279 4.329313
v 0.007442 -1.956314 3.848279
v 0.702270 -1.795968 3.848279
v 0.007442 -1.956312 -5.879312
v 0.702270 -1.795967 -5.879312
v 0.328132 -1.635622 -6.627588
v 1.129856 -1.154589 4.329314
v 1.343649 -1.368383 3.848279
v 1.343649 -1.368381 -5.879311
v 1.343649 -0.940794 -6.627587
v 0.328132 -1.635622 -6.841381
v 1.343649 -0.940794 -6.841381
v 1.450546 -0.620106 4.329314
v 1.771236 -0.780451 3.848279
v 1.771236 -0.780450 -5.879311
v 1.878132 -0.032173 -5.879311
v 1.610891 0.288516 -6.627587
v 1.610891 0.288516 -6.841381
v 1.557443 -0.032175 4.329314
v 1.878132 -0.032175 3.848279
v 1.771236 0.662653 3.848279
v 1.771236 0.662655 -5.879311
v 1.343649 1.304034 -5.879311
v 0.916063 1.304034 -6.627587
v 0.916063 1.304034 -6.841381
v 1.450546 0.555757 4.329314
v 1.129856 1.036790 4.329314
v 1.343649 1.304033 3.848279
v 0.702270 1.731619 3.848279
v 0.702270 1.731621 -5.879311
v 0.595373 1.410929 4.329314
v 0.007442 1.517825 4.329314
v 0.007442 1.838516 3.848279
v 0.007442 1.838517 -5.879311
v -0.313248 1.517827 -6.627587
v -0.580489 1.410929 4.329314
v -0.740834 1.731619 3.848279
v -0.740834 1.731621 -5.879311
v -1.328765 1.304034 -5.879311
v -1.328765 0.876448 -6.627587
v -0.313248 1.517827 -6.841380
v -1.061524 1.036790 4.329314
v -1.328765 1.304033 3.848279
v -1.756352 0.662653 3.848279
v -1.756352 0.662655 -5.879311
v -1.435662 0.555757 4.329314
v -1.542558 -0.032175 4.329314
v -1.863248 -0.032175 3.848279
v -1.863248 -0.032173 -5.879311
v -1.596007 -0.352863 -6.627587
v -1.328765 0.876448 -6.841381
v -1.435662 -0.620106 4.329314
v -1.756352 -0.780451 3.848279
v -1.756352 -0.780450 -5.879311
v -1.328765 -1.368381 -5.879311
v -0.901179 -1.368381 -6.627587
v -1.596007 -0.352863 -6.841381
v -1.061524 -1.154589 4.329314
v -1.328765 -1.368383 3.848279
v -0.740834 -1.795968 3.848279
v -0.740834 -1.795967 -5.879312
v -0.580489 -1.475279 4.329313
v -0.901179 -1.368381 -6.841381
v 0.007442 -1.956312 -6.841381
v 0.007442 -1.956312 -7.429312
v 0.702270 -1.795967 -6.841381
v 0.702270 -1.795967 -7.429312
v 1.343649 -1.368381 -6.841381
v 1.343649 -1.368381 -7.429312
v 1.771236 -0.780450 -6.841381
v 1.771236 -0.780450 -7.429312
v 1.878132 -0.032173 -6.841381
v 1.878132 -0.032173 -7.429312
v 1.771236 0.662655 -6.841381
v 1.771236 0.662655 -7.429312
v 1.343649 1.304034 -6.841381
v 1.343649 1.304034 -7.429312
v 0.702270 1.731621 -6.841380
v 0.702270 1.731621 -7.429311
v 0.007442 1.838517 -6.841380
v 0.007442 1.838518 -7.429311
v -0.740834 1.731621 -6.841380
v -0.740834 1.731621 -7.429311
v -1.328765 1.304034 -6.841381
v -1.328765 1.304034 -7.429312
v -1.756352 0.662655 -6.841381
v -1.756352 0.662655 -7.429312
v -1.863248 -0.032173 -6.841381
v -1.863248 -0.032173 -7.429312
v -1.756352 -0.780450 -6.841381
v -1.756352 -0.780450 -7.429312
v -1.328765 -1.368381 -6.841381
v -1.328765 -1.368381 -7.429312
v -0.740834 -1.795967 -6.841381
v -0.740834 -1.795967 -7.429312
v 0.007442 -0.032173 -7.429312
vn -0.0075 -0.6551 0.7555
vn 0.2333 -0.9582 0.1655
vn -0.2135 -0.5612 0.7997
vn 0.2284 -0.5503 0.8031
vn 0.8246 -0.5494 0.1348
vn 0.5982 -0.2216 0.7701
vn 0.4567 -0.4377 0.7745
vn 0.5365 -0.5277 0.6585
vn 0.0141 0.6274 0.7786
vn 0.0000 0.7433 0.6690
vn -0.2471 0.5774 0.7781
vn 0.9718 0.1926 0.1362
vn 0.5377 0.5236 0.6609
vn 0.2258 0.5841 0.7796
vn 0.4433 0.4015 0.8014
vn 0.7429 0.0014 0.6695
vn 0.5908 0.2381 0.7709
vn 0.6255 -0.0053 0.7802
vn 0.8156 -0.5418 0.2030
vn 0.9591 0.1951 0.2052
vn 0.5462 0.8117 0.2070
vn 0.5480 0.8253 0.1362
vn -0.1977 0.9714 0.1314
vn 0.1865 -0.9653 0.1825
vn -0.5447 -0.8238 0.1572
vn 0.7812 -0.5108 0.3588
vn 0.9177 0.1803 0.3541
vn 0.5291 0.7718 0.3527
vn -0.1858 0.9160 0.3555
vn -0.1827 0.9614 0.2058
vn -0.5537 -0.8077 0.2026
vn 0.1522 -0.9350 0.3204
vn 0.5980 -0.4029 0.6929
vn 0.7118 0.1408 0.6882
vn 0.4046 0.5999 0.6902
vn -0.1457 0.7064 0.6927
vn -0.6024 0.3972 0.6923
vn -0.7811 0.5109 0.3589
vn -0.5767 -0.7440 0.3375
vn 0.1407 -0.7244 0.6749
vn 0.0679 -0.2012 0.9772
vn 0.2326 -0.1530 0.9605
vn 0.2711 0.0474 0.9614
vn 0.1472 0.2182 0.9647
vn -0.0610 0.2559 0.9648
vn -0.2323 0.1533 0.9605
vn -0.7107 -0.1516 0.6870
vn 0.0000 0.0000 1.0000
vn -0.8240 0.5503 0.1349
vn -0.3201 0.6786 0.6611
vn -0.4223 0.4269 0.7996
vn -0.5183 0.5183 0.6802
vn -0.5974 0.2232 0.7703
vn -0.9725 -0.1887 0.1365
vn -0.6859 0.3231 0.6520
vn -0.6226 0.0259 0.7821
vn -0.7429 -0.0015 0.6694
vn -0.5818 -0.2452 0.7755
vn -0.8158 0.5416 0.2029
vn -0.9591 -0.1966 0.2036
vn -0.6896 -0.2915 0.6630
vn -0.4735 -0.4100 0.7796
vn -0.5203 -0.5323 0.6677
vn -0.9167 -0.1818 0.3559
vn -0.4031 -0.6011 0.6901
vn -0.2716 -0.0511 0.9611
vn -0.1526 -0.2329 0.9605
vn 0.0106 -0.7409 0.6716
vn -0.0315 -0.9484 0.3155
vn 0.2829 -0.6895 0.6668
vn 0.3670 -0.8684 0.3335
vn 0.2890 0.6923 0.6612
vn 0.6667 -0.6614 0.3437
vn 0.6875 -0.2789 0.6705
vn 0.6965 0.2754 0.6626
vn 0.8730 -0.3509 0.3387
vn 0.9418 0.0097 0.3359
vn 0.8687 0.3686 0.3310
vn 0.6699 0.6810 0.2956
vn 0.3553 0.8732 0.3337
vn -0.0397 0.9530 0.3003
vn -0.3636 0.8663 0.3425
vn -0.6667 0.6641 0.3383
vn -0.8736 0.3578 0.3298
vn -0.9523 -0.0400 0.3026
vn -0.8701 -0.3633 0.3331
vn -0.6538 -0.6760 0.3400
vn -0.2885 -0.6887 0.6652
vn -0.3576 -0.8673 0.3462
vn -0.4041 -0.8680 0.2887
vn 0.0031 -0.9466 0.3224
vn 0.3612 -0.8767 0.3176
vn -0.0130 -0.9840 -0.1780
vn 0.3925 -0.9003 -0.1881
vn 0.2023 -0.9560 -0.2126
vn 0.6707 -0.6724 0.3130
vn 0.6801 -0.7093 -0.1854
vn 0.8106 -0.5446 -0.2154
vn 0.1202 -0.5739 0.8101
vn 0.5424 0.8065 -0.2352
vn 0.5774 0.1149 0.8084
vn 0.3173 0.5026 0.8042
vn 0.8797 -0.3606 0.3099
vn 0.9167 -0.3560 -0.1816
vn 0.9833 -0.0174 -0.1809
vn 0.9583 0.1905 -0.2132
vn 0.4977 -0.3350 0.8001
vn 0.9502 0.0011 0.3117
vn 0.8779 0.3647 0.3102
vn 0.9014 0.3936 -0.1804
vn 0.7084 0.6817 -0.1831
vn -0.5788 -0.1158 0.8072
vn -0.6984 -0.2828 0.6575
vn -0.3363 -0.4955 0.8009
vn 0.6722 0.6708 0.3132
vn 0.3626 0.8789 0.3101
vn 0.3582 0.9159 -0.1812
vn 0.0025 0.9501 0.3121
vn 0.0189 0.9822 -0.1870
vn -0.1909 0.9564 -0.2211
vn -0.3675 0.8758 0.3128
vn -0.3967 0.8976 -0.1924
vn -0.6830 0.7061 -0.1870
vn -0.8103 0.5448 -0.2158
vn -0.1178 0.5913 0.7978
vn 0.7098 0.2671 0.6518
vn -0.6743 0.6685 0.3138
vn -0.8789 0.3623 0.3102
vn -0.9160 0.3579 -0.1815
vn -0.9502 0.0030 0.3117
vn -0.9831 0.0219 -0.1815
vn -0.9574 -0.1933 -0.2145
vn -0.4879 0.3319 0.8073
vn -0.8788 -0.3624 0.3104
vn -0.9023 -0.3915 -0.1803
vn -0.7099 -0.6787 -0.1880
vn -0.5395 -0.8119 -0.2230
vn 0.3055 -0.6741 0.6726
vn -0.6732 -0.6683 0.3166
vn -0.3609 -0.9128 -0.1913
vn -0.2816 0.7040 0.6520
vn 0.0228 -0.7482 0.6631
vn -0.5174 -0.5271 0.6741
vn -0.2935 -0.6726 0.6793
vn 0.0079 0.7370 0.6758
vn 0.2750 0.7083 0.6502
vn 0.2523 0.7144 -0.6527
vn 0.7371 0.0077 0.6758
vn 0.5278 0.5278 0.6655
vn -0.2911 -0.6952 -0.6572
vn -0.6985 -0.2881 -0.6551
vn 0.5031 -0.5555 0.6620
vn 0.3108 -0.6738 -0.6704
vn 0.5257 -0.5476 -0.6510
vn -0.7142 0.2526 -0.6528
vn -0.7375 0.0021 0.6754
vn -0.7029 0.2729 0.6569
vn -0.5465 0.5011 0.6710
vn 0.7020 -0.2795 -0.6550
vn 0.7014 -0.2845 0.6535
vn -0.2952 0.6978 -0.6527
vn 0.6966 0.2960 -0.6535
vn 0.0004 0.7385 -0.6743
vn 0.5278 0.5278 -0.6655
vn -0.5504 0.5062 -0.6640
vn 0.7385 0.0074 -0.6742
vn -0.7385 0.0004 -0.6743
vn -0.5196 -0.5285 -0.6713
vn 0.0255 -0.7560 -0.6540
vn -0.0000 0.0000 -1.0000
s 1
f 3//1 2//2 52//3
f 2//2 1//4 4//5
f 6//6 5//7 60//8
f 23//9 66//10 40//11
f 4//5 6//6 7//12
f 64//13 15//14 14//15
f 62//16 9//17 8//18
f 4//5 10//19 2//2
f 10//19 4//5 11//20
f 7//12 11//20 4//5
f 11//20 7//12 12//21
f 13//22 12//21 7//12
f 7//12 9//17 13//22
f 40//11 22//23 23//9
f 15//14 13//22 14//15
f 16//24 50//25 2//2
f 10//19 17//26 16//24
f 17//26 10//19 18//27
f 11//20 18//27 10//19
f 18//27 11//20 19//28
f 12//21 19//28 11//20
f 19//28 12//21 20//29
f 21//30 20//29 12//21
f 12//21 13//22 21//30
f 22//23 21//30 13//22
f 13//22 15//14 22//23
f 6//6 4//5 5//7
f 49//31 16//24 24//32
f 17//26 25//33 24//32
f 25//33 17//26 26//34
f 18//27 26//34 17//26
f 26//34 18//27 27//35
f 19//28 27//35 18//27
f 27//35 19//28 28//36
f 20//29 28//36 19//28
f 28//36 20//29 29//37
f 30//38 29//37 20//29
f 20//29 21//30 30//38
f 54//39 24//32 31//40
f 31//40 25//33 32//41
f 33//42 32//41 25//33
f 25//33 26//34 33//42
f 34//43 33//42 26//34
f 26//34 27//35 34//43
f 35//44 34//43 27//35
f 27//35 28//36 35//44
f 36//45 35//44 28//36
f 28//36 29//37 36//45
f 37//46 36//45 29//37
f 29//37 38//47 37//46
f 29//37 30//38 38//47
f 33//42 39//48 32//41
f 34//43 39//48 33//42
f 35//44 39//48 34//43
f 36//45 39//48 35//44
f 37//46 39//48 36//45
f 8//18 9//17 7//12
f 22//23 40//11 41//49
f 40//11 67//50 42//51
f 68//52 43//53 42//51
f 41//49 43//53 44//54
f 69//55 45//56 43//53
f 45//56 70//57 46//58
f 41//49 47//59 22//23
f 47//59 41//49 48//60
f 44//54 48//60 41//49
f 48//60 44//54 49//31
f 50//25 49//31 44//54
f 44//54 46//58 50//25
f 71//61 51//62 46//58
f 72//63 52//3 51//62
f 21//30 22//23 47//59
f 47//59 30//38 21//30
f 30//38 47//59 53//64
f 48//60 53//64 47//59
f 53//64 48//60 54//39
f 49//31 54//39 48//60
f 54//39 49//31 24//32
f 24//32 16//24 17//26
f 49//31 50//25 16//24
f 10//19 16//24 2//2
f 50//25 52//3 2//2
f 1//4 2//2 3//1
f 53//64 38//47 30//38
f 38//47 53//64 55//65
f 54//39 55//65 53//64
f 55//65 54//39 31//40
f 25//33 31//40 24//32
f 38//47 55//65 56//66
f 57//67 56//66 55//65
f 55//65 31//40 57//67
f 32//41 57//67 31//40
f 57//67 39//48 56//66
f 56//66 39//48 37//46
f 56//66 37//46 38//47
f 1//4 3//1 58//68
f 58//68 74//69 59//70
f 1//4 59//70 5//7
f 59//70 75//71 60//8
f 65//72 23//9 15//14
f 60//8 81//73 61//74
f 9//17 63//75 14//15
f 61//74 87//76 62//16
f 61//74 8//18 6//6
f 93//77 63//75 62//16
f 22//23 15//14 23//9
f 64//13 63//75 100//78
f 14//15 13//22 9//17
f 101//79 65//72 64//13
f 1//4 5//7 4//5
f 105//80 66//10 65//72
f 7//12 6//6 8//18
f 106//81 67//50 66//10
f 42//51 41//49 40//11
f 68//52 67//50 110//82
f 42//51 43//53 41//49
f 116//83 69//55 68//52
f 44//54 43//53 45//56
f 70//57 69//55 120//84
f 46//58 44//54 45//56
f 71//61 70//57 121//85
f 51//62 50//25 46//58
f 126//86 72//63 71//61
f 52//3 50//25 51//62
f 132//87 73//88 72//63
f 73//88 3//1 52//3
f 136//89 58//68 73//88
f 59//70 1//4 58//68
f 75//71 59//70 74//69
f 134//90 76//91 74//69
f 77//92 75//71 76//91
f 77//92 76//91 78//93
f 79//94 77//92 78//93
f 80//95 79//94 78//93
f 60//8 5//7 59//70
f 81//73 60//8 75//71
f 75//71 77//92 81//73
f 82//96 81//73 77//92
f 77//92 79//94 82//96
f 83//97 82//96 79//94
f 79//94 80//95 83//97
f 84//98 83//97 80//95
f 84//98 80//95 85//99
f 98//100 92//101 99//102
f 61//74 6//6 60//8
f 87//76 61//74 81//73
f 81//73 82//96 87//76
f 88//103 87//76 82//96
f 82//96 83//97 88//103
f 89//104 88//103 83//97
f 83//97 84//98 89//104
f 89//104 84//98 90//105
f 91//106 90//105 84//98
f 84//98 86//107 91//106
f 85//99 86//107 84//98
f 62//16 8//18 61//74
f 93//77 62//16 87//76
f 87//76 88//103 93//77
f 94//108 93//77 88//103
f 88//103 89//104 94//108
f 90//105 94//108 89//104
f 94//108 90//105 95//109
f 96//110 95//109 90//105
f 90//105 91//106 96//110
f 96//110 91//106 97//111
f 98//100 97//111 91//106
f 91//106 92//101 98//100
f 131//112 164//113 137//114
f 62//16 63//75 9//17
f 100//78 63//75 93//77
f 93//77 94//108 100//78
f 95//109 100//78 94//108
f 100//78 95//109 101//79
f 102//115 101//79 95//109
f 95//109 96//110 102//115
f 97//111 102//115 96//110
f 102//115 97//111 103//116
f 104//117 103//116 97//111
f 97//111 98//100 104//117
f 63//75 64//13 14//15
f 101//79 64//13 100//78
f 64//13 65//72 15//14
f 105//80 65//72 101//79
f 101//79 102//115 105//80
f 103//116 105//80 102//115
f 105//80 103//116 106//81
f 107//118 106//81 103//116
f 103//116 104//117 107//118
f 108//119 107//118 104//117
f 104//117 98//100 108//119
f 109//120 108//119 98//100
f 98//100 99//102 109//120
f 66//10 23//9 65//72
f 106//81 66//10 105//80
f 67//50 40//11 66//10
f 110//82 67//50 106//81
f 106//81 107//118 110//82
f 111//121 110//82 107//118
f 107//118 108//119 111//121
f 112//122 111//121 108//119
f 108//119 109//120 112//122
f 112//122 109//120 113//123
f 114//124 113//123 109//120
f 109//120 115//125 114//124
f 99//102 92//101 148//126
f 67//50 68//52 42//51
f 116//83 68//52 110//82
f 110//82 111//121 116//83
f 117//127 116//83 111//121
f 111//121 112//122 117//127
f 113//123 117//127 112//122
f 117//127 113//123 118//128
f 119//129 118//128 113//123
f 113//123 114//124 119//129
f 69//55 43//53 68//52
f 120//84 69//55 116//83
f 116//83 117//127 120//84
f 118//128 120//84 117//127
f 120//84 118//128 121//85
f 122//130 121//85 118//128
f 118//128 119//129 122//130
f 123//131 122//130 119//129
f 119//129 114//124 123//131
f 124//132 123//131 114//124
f 114//124 125//133 124//132
f 115//125 125//133 114//124
f 69//55 70//57 45//56
f 121//85 70//57 120//84
f 70//57 71//61 46//58
f 126//86 71//61 121//85
f 121//85 122//130 126//86
f 127//134 126//86 122//130
f 122//130 123//131 127//134
f 128//135 127//134 123//131
f 123//131 124//132 128//135
f 128//135 124//132 129//136
f 130//137 129//136 124//132
f 124//132 131//112 130//137
f 86//107 85//99 140//138
f 72//63 51//62 71//61
f 132//87 72//63 126//86
f 126//86 127//134 132//87
f 133//139 132//87 127//134
f 127//134 128//135 133//139
f 129//136 133//139 128//135
f 133//139 129//136 134//90
f 135//140 134//90 129//136
f 129//136 130//137 135//140
f 73//88 52//3 72//63
f 136//89 73//88 132//87
f 132//87 133//139 136//89
f 134//90 136//89 133//139
f 136//89 134//90 74//69
f 75//71 74//69 76//91
f 134//90 135//140 76//91
f 78//93 76//91 135//140
f 135//140 130//137 78//93
f 78//93 130//137 80//95
f 130//137 137//114 80//95
f 137//114 130//137 131//112
f 73//88 58//68 3//1
f 136//89 74//69 58//68
f 125//133 115//125 156//141
f 140//138 85//99 138//142
f 166//143 168//144 137//114
f 154//145 152//146 153//147
f 148//126 92//101 146//148
f 152//146 99//102 150//149
f 169//150 138//142 168//144
f 165//151 166//143 164//113
f 154//145 156//141 115//125
f 142//152 141//153 143//154
f 161//155 162//156 160//157
f 160//157 162//156 131//112
f 160//157 125//133 158//158
f 145//159 146//148 144//160
f 141//153 142//152 140//138
f 157//161 158//158 156//141
f 142//152 144//160 86//107
f 149//162 150//149 148//126
f 144//160 143//154 145//159
f 148//126 150//149 99//102
f 137//114 85//99 80//95
f 155//163 156//141 154//145
f 168//144 138//142 85//99
f 92//101 91//106 86//107
f 142//152 86//107 140//138
f 151//164 152//146 150//149
f 152//146 115//125 99//102
f 146//148 92//101 144//160
f 160//157 158//158 159//165
f 125//133 131//112 124//132
f 143//154 144//160 142//152
f 147//166 148//126 146//148
f 85//99 137//114 168//144
f 164//113 166//143 137//114
f 162//156 164//113 131//112
f 109//120 99//102 115//125
f 163//167 164//113 162//156
f 158//158 125//133 156//141
f 86//107 144//160 92//101
f 167//168 168//144 166//143
f 139//169 140//138 138//142
f 160//157 131//112 125//133
f 154//145 115//125 152//146
f 57//67 32//41 39//48
f 146//148 145//159 147//166
f 148//126 147//166 149//162
f 150//149 149//162 151//164
f 152//146 151//164 153//147
f 154//145 153//147 155//163
f 156//141 155//163 157//161
f 158//158 157//161 159//165
f 160//157 159//165 161//155
f 162//156 161//155 163//167
f 164//113 163//167 165//151
f 166//143 165//151 167//168
f 168//144 167//168 169//150
f 139//169 138//142 169//150
f 140//138 139//169 141//153
f 170//170 169//150 167//168
f 165//151 170//170 167//168
f 170//170 165//151 163//167
f 170//170 163//167 161//155
f 159//165 170//170 161//155
f 159//165 157//161 170//170
f 155//163 170//170 157//161
f 170//170 155//163 153//147
f 170//170 153//147 151//164
f 170//170 151//164 149//162
f 147//166 170//170 149//162
f 147//166 145//159 170//170
f 143//154 170//170 145//159
f 143//154 141//153 170//170
f 139//169 170//170 141//153
f 170//170 139//169 169//150
